<svg t="1561947009399" class="icon" viewBox="0 0 1024 1024" version="1.1" xmlns="http://www.w3.org/2000/svg" p-id="2186" width="48" height="48"><path d="M1007.2 744.7h-1c-6.5 0-11.8-5.3-11.8-11.8v-12.4c0-6.5 5.3-11.8 11.8-11.8h1c6.5 0 11.8 5.3 11.8 11.8v12.4c0 6.5-5.3 11.8-11.8 11.8z" fill="#FF0600" p-id="2187"></path><path d="M634 225.6H48.3c-20.8 0-37.7 16.9-37.7 37.7v358h661.1v-358c0-20.9-16.9-37.7-37.7-37.7z" fill="#FBB138" p-id="2188"></path><path d="M896.6 681.3h97.8v-111c0-43.7-14.7-58.5-41.6-104.3-30.4-51.8-37.6-84.5-66.9-84.5H698.4c-8.3 0-15 6.7-15 15v225.3h90.8c49.7-0.1 93.9 23.2 122.4 59.5z" fill="#E84E2F" p-id="2189"></path><path d="M989.4 689.9h-98.3l-1.6-2.1 2.1 2.1c-28.5-36.2-72.7-59.5-122.4-59.5h-715c-7.6 0-13.8 6.2-13.8 13.8v96.4c0 7.6 6.2 13.7 13.7 13.7h35.5c4-57.5 51.7-102.9 110.2-102.9S306 696.8 310 754.3h349c4-57.5 51.7-102.9 110.2-102.9s106.2 45.4 110.2 102.9h114.9c4.6 0 8.4-3.8 8.4-8.4V705c0-7.8-5.8-14.1-13.3-15.1z" fill="#4D4D4D" p-id="2190"></path><path d="M964.4 544.2H843.3c-3.5 0-6.4-2.9-6.4-6.4V412.9c0-3.5 2.9-6.4 6.4-6.4h45.4c2.2 0 4.3 1.2 5.5 3.1l75.7 124.9c2.6 4.2-0.5 9.7-5.5 9.7zM813.9 544.2h-96c-6.5 0-11.8-5.3-11.8-11.8V418.2c0-6.5 5.3-11.8 11.8-11.8h96c6.5 0 11.8 5.3 11.8 11.8v114.2c0 6.5-5.3 11.8-11.8 11.8z" fill="#A5E0EF" p-id="2191"></path><path d="M289.2 751.1c2.9-1 4.6-4 3.8-7l-3.2-11.9c-0.8-3-3.8-4.7-6.8-4.2 2.5-1.7 3.4-5 1.9-7.6l-6.2-10.7c-1.6-2.7-4.9-3.5-7.6-2.2 2-2.3 2.1-5.8-0.1-8l-8.7-8.7c-2.2-2.2-5.7-2.2-8-0.1 1.3-2.7 0.5-6.1-2.2-7.6l-10.7-6.2c-2.7-1.5-5.9-0.6-7.6 1.9 0.6-3-1.2-6-4.2-6.8l-11.9-3.2c-3-0.8-6 0.9-7 3.8-0.3-3-2.6-5.4-5.7-5.4h-12.4c-3.1 0-5.4 2.4-5.7 5.4-1-2.9-4-4.6-7-3.8L168 672c-3 0.8-4.7 3.8-4.2 6.8-1.7-2.5-5-3.4-7.6-1.9l-10.7 6.2c-2.7 1.6-3.5 4.9-2.2 7.6-2.3-2-5.8-2.1-8 0.1l-8.7 8.7c-2.2 2.2-2.2 5.7-0.1 8-2.7-1.3-6.1-0.5-7.6 2.2l-6.2 10.7c-1.5 2.7-0.6 5.9 1.9 7.6-3-0.6-6 1.2-6.8 4.2l-3.2 11.9c-0.8 3 0.9 6 3.8 7-3 0.3-5.4 2.6-5.4 5.7v12.4c0 3.1 2.4 5.4 5.4 5.7-2.9 1-4.6 4-3.8 7l3.2 11.9c0.8 3 3.8 4.7 6.8 4.2-2.5 1.7-3.4 5-1.9 7.6l6.2 10.7c1.6 2.7 4.9 3.5 7.6 2.2-2 2.3-2.1 5.8 0.1 8l8.7 8.7c2.2 2.2 5.6 2.2 8 0.1-1.3 2.7-0.5 6.1 2.2 7.6l10.7 6.2c2.7 1.5 5.9 0.6 7.6-1.9-0.6 3 1.2 6 4.2 6.8l11.9 3.2c3 0.8 6-0.9 7-3.8 0.3 3 2.6 5.4 5.7 5.4H205c3.1 0 5.4-2.4 5.7-5.4 1 2.9 4 4.6 7 3.8l11.9-3.2c3-0.8 4.7-3.8 4.2-6.8 1.7 2.5 5 3.4 7.6 1.9L252 843c2.7-1.6 3.5-4.9 2.2-7.6 2.3 2 5.8 2.1 8-0.1l8.7-8.7c2.2-2.2 2.2-5.6 0.1-8 2.7 1.3 6.1 0.5 7.6-2.2l6.2-10.7c1.5-2.7 0.6-5.9-1.9-7.6 3 0.6 6-1.2 6.8-4.2l3.2-11.9c0.8-3-0.9-6-3.8-7 3-0.3 5.4-2.6 5.4-5.7v-12.4c0.1-3.1-2.3-5.5-5.3-5.8z" fill="#363636" p-id="2192"></path><path d="M172.376227 772.582842a28 28 0 1 0 52.623121-19.152209 28 28 0 1 0-52.623121 19.152209Z" fill="#FFFFFF" p-id="2193"></path><path d="M273.4 735.8c-15-41.3-60.7-62.6-101.9-47.5-41.3 15-62.6 60.7-47.5 101.9 15 41.3 60.7 62.6 101.9 47.5 41.3-15 62.6-60.6 47.5-101.9z m-55.9 78.8c-28.5 10.4-60-4.3-70.3-32.8-10.4-28.5 4.3-60 32.8-70.3 28.5-10.4 60 4.3 70.3 32.8 10.3 28.4-4.4 59.9-32.8 70.3z" fill="#4D4D4D" p-id="2194"></path><path d="M861.3 751.1c2.9-1 4.6-4 3.8-7l-3.2-11.9c-0.8-3-3.8-4.7-6.8-4.2 2.5-1.7 3.4-5 1.9-7.6l-6.2-10.7c-1.6-2.7-4.9-3.5-7.6-2.2 2-2.3 2.1-5.8-0.1-8l-8.7-8.7c-2.2-2.2-5.7-2.2-8-0.1 1.3-2.7 0.5-6.1-2.2-7.6l-10.7-6.2c-2.7-1.5-5.9-0.6-7.6 1.9 0.6-3-1.2-6-4.2-6.8l-11.9-3.2c-3-0.8-6 0.9-7 3.8-0.3-3-2.6-5.4-5.7-5.4h-12.4c-3.1 0-5.4 2.4-5.7 5.4-1-2.9-4-4.6-7-3.8l-11.9 3.2c-3 0.8-4.7 3.8-4.2 6.8-1.7-2.5-5-3.4-7.6-1.9l-10.7 6.2c-2.7 1.6-3.5 4.9-2.2 7.6-2.3-2-5.8-2.1-8 0.1l-8.7 8.7c-2.2 2.2-2.2 5.7-0.1 8-2.7-1.3-6.1-0.5-7.6 2.2l-6.2 10.7c-1.5 2.7-0.6 5.9 1.9 7.6-3-0.6-6 1.2-6.8 4.2l-3.2 11.9c-0.8 3 0.9 6 3.8 7-3 0.3-5.4 2.6-5.4 5.7v12.4c0 3.1 2.4 5.4 5.4 5.7-2.9 1-4.6 4-3.8 7l3.2 11.9c0.8 3 3.8 4.7 6.8 4.2-2.5 1.7-3.4 5-1.9 7.6l6.2 10.7c1.6 2.7 4.9 3.5 7.6 2.2-2 2.3-2.1 5.8 0.1 8l8.7 8.7c2.2 2.2 5.6 2.2 8 0.1-1.3 2.7-0.5 6.1 2.2 7.6l10.7 6.2c2.7 1.5 5.9 0.6 7.6-1.9-0.6 3 1.2 6 4.2 6.8l11.9 3.2c3 0.8 6-0.9 7-3.8 0.3 3 2.6 5.4 5.7 5.4H777c3.1 0 5.4-2.4 5.7-5.4 1 2.9 4 4.6 7 3.8l11.9-3.2c3-0.8 4.7-3.8 4.2-6.8 1.7 2.5 5 3.4 7.6 1.9l10.7-6.2c2.7-1.6 3.5-4.9 2.2-7.6 2.3 2 5.8 2.1 8-0.1l8.7-8.7c2.2-2.2 2.2-5.6 0.1-8 2.7 1.3 6.1 0.5 7.6-2.2l6.2-10.7c1.5-2.7 0.6-5.9-1.9-7.6 3 0.6 6-1.2 6.8-4.2l3.2-11.9c0.8-3-0.9-6-3.8-7 3-0.3 5.4-2.6 5.4-5.7v-12.4c0.2-3-2.3-5.4-5.3-5.7z" fill="#363636" p-id="2195"></path><path d="M797.1 753.4c7.5 20.7-10.8 44.5-38.5 35.8-24.4-15.7-18-45 2.7-52.6 14.5-5.2 30.5 2.3 35.8 16.8z" fill="#FFFFFF" p-id="2196"></path><path d="M845.6 735.8c-15-41.3-60.7-62.6-101.9-47.5-41.3 15-62.6 60.7-47.5 101.9 15 41.3 60.7 62.6 101.9 47.5 41.2-15 62.5-60.6 47.5-101.9z m-56 78.8c-28.5 10.4-60-4.3-70.3-32.8-10.4-28.5 4.3-60 32.8-70.3 28.5-10.4 60 4.3 70.3 32.8 10.4 28.4-4.3 59.9-32.8 70.3z" fill="#4D4D4D" p-id="2197"></path><path d="M910.4 389.4h42.5v5.4h-42.5z" fill="" p-id="2198"></path><path d="M947.8 389.4h5.1v50.5h-5.1z" fill="" p-id="2199"></path><path d="M942.4 420.9h8v18.9h-8z" fill="" p-id="2200"></path><path d="M165.9 544.2H163c-18.2 0-33.1-14.9-33.1-33.1V345c0-18.2 14.9-33.1 33.1-33.1h2.9c18.2 0 33.1 14.9 33.1 33.1v166c0 18.3-14.9 33.2-33.1 33.2zM342.3 544.2h-2.9c-18.2 0-33.1-14.9-33.1-33.1V345c0-18.2 14.9-33.1 33.1-33.1h2.9c18.2 0 33.1 14.9 33.1 33.1v166c0 18.3-14.9 33.2-33.1 33.2zM516.6 544.2h-2.9c-18.2 0-33.1-14.9-33.1-33.1V345c0-18.2 14.9-33.1 33.1-33.1h2.9c18.2 0 33.1 14.9 33.1 33.1v166c0 18.3-14.9 33.2-33.1 33.2z" fill="#683E00" p-id="2201"></path></svg>